<svg width="32" height="32" viewBox="0 0 32 32" fill="none" xmlns="http://www.w3.org/2000/svg">
<path fill-rule="evenodd" clip-rule="evenodd" d="M22.0003 2.66675H10.0003C6.00033 2.66675 2.66699 6.00008 2.66699 10.0001V22.0001C2.66699 26.0001 6.00033 29.3334 10.0003 29.3334H22.0003C26.0003 29.3334 29.3337 26.0001 29.3337 22.0001V10.0001C29.3337 6.00008 26.0003 2.66675 22.0003 2.66675ZM26.9337 22.0001C26.9337 24.8001 24.667 26.9334 22.0003 26.9334H10.0003C7.20033 26.9334 5.06699 24.6667 5.06699 22.0001V10.0001C5.06699 7.20008 7.33366 5.06675 10.0003 5.06675H22.0003C24.8003 5.06675 26.9337 7.33341 26.9337 10.0001V22.0001ZM16.0003 9.06675C12.267 9.06675 9.06699 12.1334 9.06699 16.0001C9.06699 19.7334 12.1337 22.9334 16.0003 22.9334C19.867 22.9334 22.9337 19.8667 22.9337 16.0001C22.9337 12.2667 19.7337 9.06675 16.0003 9.06675ZM16.0003 20.5334C13.467 20.5334 11.467 18.5334 11.467 16.0001C11.467 13.4667 13.467 11.4667 16.0003 11.4667C18.5337 11.4667 20.5337 13.4667 20.5337 16.0001C20.5337 18.5334 18.5337 20.5334 16.0003 20.5334ZM24.9337 8.80008C24.9337 9.75737 24.1576 10.5334 23.2003 10.5334C22.243 10.5334 21.467 9.75737 21.467 8.80008C21.467 7.84279 22.243 7.06675 23.2003 7.06675C24.1576 7.06675 24.9337 7.84279 24.9337 8.80008Z" fill="#333333"/>
</svg>
