<svg width="32" height="32" viewBox="0 0 32 32" fill="none" xmlns="http://www.w3.org/2000/svg">
<path fill-rule="evenodd" clip-rule="evenodd" d="M15.9997 20C12.2663 20 9.33301 17.0667 9.33301 13.3333C9.33301 9.6 12.2663 6.66667 15.9997 6.66667C19.733 6.66667 22.6663 9.6 22.6663 13.3333H19.9997C19.9997 11.0667 18.2663 9.33333 15.9997 9.33333C13.733 9.33333 11.9997 11.0667 11.9997 13.3333C11.9997 15.6 13.733 17.3333 15.9997 17.3333V20ZM21.333 20H17.333V14.6667H22.6663V17.0667C24.2663 16.5333 25.333 15.0667 25.333 13.3333V10.6667H27.9997V13.3333C27.9997 17.0667 25.0663 20 21.333 20ZM5.33301 32V29.3333C5.33301 24.6667 9.73301 21.3333 15.9997 21.3333C22.2663 21.3333 26.6663 24.6667 26.6663 29.3333V32H5.33301ZM23.9997 29.3333C23.9997 26.1333 20.6663 24 15.9997 24C11.333 24 7.99967 26.1333 7.99967 29.3333H23.9997Z" fill="#333333"/>
</svg>
