<svg width="32" height="32" viewBox="0 0 32 32" fill="none" xmlns="http://www.w3.org/2000/svg">
<path fill-rule="evenodd" clip-rule="evenodd" d="M25.467 6.53332C22.9337 3.99999 19.6003 2.66666 16.0003 2.66666C8.66699 2.66666 2.66699 8.66666 2.66699 16C2.66699 18.4 3.33366 20.6667 4.40033 22.6667L2.66699 29.3333L9.73366 27.4667C11.7337 28.5333 13.867 29.0667 16.1337 29.0667C23.467 29.0667 29.467 23.0667 29.467 15.7333C29.3337 12.4 28.0003 9.06666 25.467 6.53332ZM16.0003 26.9333C14.0003 26.9333 12.1337 26.4 10.4003 25.3333L10.0003 25.0667L5.86699 26.1333L6.93366 22L6.66699 21.7333C5.60033 20 4.93366 18 4.93366 15.8667C4.93366 9.73332 9.86699 4.79999 16.0003 4.79999C18.9337 4.79999 21.7337 5.99999 23.867 7.99999C26.0003 10.1333 27.067 12.8 27.067 15.8667C27.067 22 22.1337 26.9333 16.0003 26.9333ZM21.0003 18.1333C21.5003 18.3666 22.0003 18.6 22.1337 18.6667C22.4003 18.8 22.667 18.9333 22.8003 19.0667C22.9337 19.2 22.9337 19.8667 22.667 20.6667C22.4003 21.4667 21.067 22.1333 20.4003 22.2667C19.7337 22.4 19.067 22.4 18.267 22.1333C18.167 22.1 18.0503 22.0667 17.9191 22.0292C17.5253 21.9167 17.0003 21.7667 16.4003 21.4667C13.067 20 10.8003 16.6667 10.667 16.4C10.646 16.3581 10.5987 16.2831 10.5338 16.1804C10.1859 15.6301 9.33366 14.2817 9.33366 12.9333C9.33366 11.5619 9.92141 10.7782 10.2573 10.3304C10.3132 10.2558 10.3622 10.1905 10.4003 10.1333C10.8003 9.86666 11.067 9.73332 11.3337 9.73332H12.0003C12.1337 9.73332 12.5337 9.73332 12.667 10.6667C12.9337 11.3333 13.6003 12.9333 13.7337 13.0667C13.7337 13.107 13.7459 13.1474 13.7592 13.1915C13.79 13.293 13.8266 13.4141 13.7337 13.6C13.7337 13.8667 13.7337 14 13.467 14.1333C13.2811 14.2263 13.16 14.3841 13.0585 14.5163C13.0144 14.5737 12.974 14.6263 12.9337 14.6667C12.8003 14.8 12.667 15.0667 12.8003 15.3333C12.8932 15.4262 13.0346 15.6162 13.219 15.8637C13.5638 16.3269 14.0588 16.9918 14.667 17.6C15.6738 18.4949 16.6806 18.9206 17.1362 19.1132C17.2236 19.1501 17.2907 19.1785 17.3337 19.2C17.6003 19.3333 17.7337 19.3333 18.0003 19.0667C18.1337 18.9333 18.3337 18.6667 18.5337 18.4C18.7337 18.1333 18.9337 17.8667 19.067 17.7333C19.3337 17.4667 19.6003 17.4667 19.867 17.6C20.0003 17.6667 20.5003 17.9 21.0003 18.1333Z" fill="#333333"/>
</svg>
